<svg width="177" height="43" viewBox="0 0 177 43" fill="none" xmlns="http://www.w3.org/2000/svg">
<g clip-path="url(#clip0_2710_38033)">
<mask id="mask0_2710_38033" style="mask-type:alpha" maskUnits="userSpaceOnUse" x="0" y="0" width="43" height="43">
<path fill-rule="evenodd" clip-rule="evenodd" d="M0 21.7533C0 33.355 9.40494 42.7599 21.0067 42.7599C32.6084 42.7599 42.0133 33.355 42.0133 21.7533C42.0133 10.1516 32.6084 0.746582 21.0067 0.746582C9.40494 0.746582 0 10.1516 0 21.7533Z" fill="white"/>
</mask>
<g mask="url(#mask0_2710_38033)">
<path fill-rule="evenodd" clip-rule="evenodd" d="M0 21.7533C0 33.355 9.40494 42.7599 21.0067 42.7599C32.6084 42.7599 42.0133 33.355 42.0133 21.7533C42.0133 10.1516 32.6084 0.746582 21.0067 0.746582C9.40494 0.746582 0 10.1516 0 21.7533Z" fill="url(#paint0_radial_2710_38033)"/>
<path fill-rule="evenodd" clip-rule="evenodd" d="M36.3595 -0.933594H5.26961V7.4691H36.3595V-0.933594ZM5.26961 44.4407H36.3595V36.038H5.26961V44.4407ZM-2.29395 27.2159H44.3408V16.2924H-2.29395V27.2159Z" fill="url(#paint1_linear_2710_38033)"/>
</g>
</g>
<path d="M52.5605 12.0591H66.4915C71.9551 12.0591 73.316 14.4623 73.316 16.6046V16.8883C73.316 19.2916 71.2365 20.506 69.8023 20.6847C71.9579 20.994 74.2656 22.3645 74.2656 25.4373V25.7211C74.2656 28.3315 72.7018 31.2767 66.5704 31.2767H52.5634V12.0591H52.5605ZM57.8466 16.0626V19.4987H65.7222C67.3142 19.4987 67.8017 18.7241 67.8017 17.819V17.7679C67.8017 16.8372 67.2889 16.0626 65.7222 16.0626H57.8466ZM57.8466 23.2696V27.066H66.1336C68.0074 27.066 68.5202 26.1098 68.5202 25.1281V25.0259C68.5202 24.0697 68.0074 23.2696 66.1336 23.2696H57.8466V23.2696Z" fill="black"/>
<path d="M86.3363 31.617H85.3867C78.3565 31.617 76.6123 27.7412 76.6123 24.3051V23.9447C76.6123 20.6903 78.2015 16.6328 84.95 16.6328H86.0799C93.3666 16.6328 94.674 20.7158 94.674 24.7194V25.1847H81.7181C81.9491 26.8389 82.9494 28.181 86.0292 28.181C88.9286 28.181 89.3119 27.0687 89.4161 26.8105H94.6233C94.6233 27.9738 93.6991 31.617 86.3363 31.617V31.617ZM81.7688 22.4721H89.3119C89.2865 21.4138 88.799 19.9157 85.5924 19.9157C82.9748 19.9157 82.0787 20.974 81.7688 22.4721Z" fill="black"/>
<path d="M106.588 31.617H105.639C98.6084 31.617 96.8643 27.7412 96.8643 24.3051V23.9447C96.8643 20.6903 98.4535 16.6328 105.202 16.6328H106.332C113.619 16.6328 114.926 20.7158 114.926 24.7194V25.1847H101.97C102.201 26.8389 103.201 28.181 106.281 28.181C109.181 28.181 109.564 27.0687 109.668 26.8105H114.875C114.875 27.9738 113.951 31.617 106.588 31.617V31.617ZM102.021 22.4721H109.564C109.538 21.4138 109.051 19.9157 105.844 19.9157C103.227 19.9157 102.331 20.974 102.021 22.4721Z" fill="black"/>
<path d="M122.499 31.2822H117.495V11.7241H122.499V31.2822Z" fill="black"/>
<path d="M130.584 15.3418H125.479V11.7241H130.584V15.3418ZM130.534 31.2822H125.529V16.9421H130.534V31.2794V31.2822Z" fill="black"/>
<path d="M133.376 16.9421H138.327V19.2149C138.916 18.4403 140.865 16.6045 144.1 16.6045H144.357C148.513 16.6045 150.412 19.4475 150.412 21.9785V31.2794H145.408V23.8143C145.408 22.1601 144.458 20.5598 141.995 20.5598C139.533 20.5598 138.377 22.2395 138.377 23.9959V31.2823H133.373V16.9421H133.376Z" fill="black"/>
<path d="M162.813 31.617H161.863C154.833 31.617 153.089 27.7412 153.089 24.3051V23.9447C153.089 20.6903 154.678 16.6328 161.427 16.6328H162.556C169.843 16.6328 171.151 20.7158 171.151 24.7194V25.1847H158.195C158.426 26.8389 159.426 28.181 162.506 28.181C165.405 28.181 165.788 27.0687 165.893 26.8105H171.1C171.1 27.9738 170.176 31.617 162.813 31.617V31.617ZM158.245 22.4721H165.788C165.763 21.4138 165.276 19.9157 162.069 19.9157C159.451 19.9157 158.555 20.974 158.245 22.4721V22.4721Z" fill="black"/>
<path d="M173.118 17.5662C170.32 17.5662 169.612 16.0284 169.612 14.726V14.5132C169.612 13.2988 170.255 11.707 173.118 11.707H173.537C176.392 11.707 177 13.2988 177 14.5359V14.726C177 16.0284 176.127 17.5662 173.518 17.5662H173.12H173.118ZM173.349 16.8086C175.803 16.8086 176.124 15.5403 176.124 14.5586C176.124 13.6336 175.825 12.4646 173.349 12.4646H173.326C170.782 12.4646 170.517 13.5882 170.517 14.6239C170.517 15.6595 170.782 16.8058 173.326 16.8058H173.349V16.8086ZM172.686 16.1305H171.548V13.1229H174.025C174.921 13.1229 175.175 13.4577 175.175 13.8464V13.8918C175.175 14.3032 174.853 14.5047 174.588 14.5501C175.02 14.638 175.22 14.9189 175.22 15.2282V15.773C175.22 15.9404 175.231 16.0057 175.287 16.0738V16.1305H174.16C174.115 16.0851 174.062 16.0312 174.062 15.8751V15.563C174.062 15.2623 173.974 15.1403 173.687 15.1403H172.692V16.1305H172.686ZM173.749 14.3827C173.991 14.3827 174.059 14.2607 174.059 14.1046C174.059 13.9372 173.991 13.8152 173.749 13.8152H172.686V14.3827H173.749Z" fill="black"/>
<defs>
<radialGradient id="paint0_radial_2710_38033" cx="0" cy="0" r="1" gradientUnits="userSpaceOnUse" gradientTransform="translate(27.1634 17.6513) rotate(103.777) scale(25.8524 25.8554)">
<stop stop-color="#FBE993"/>
<stop offset="0.426228" stop-color="#FDE622"/>
<stop offset="1" stop-color="#F5B732"/>
</radialGradient>
<linearGradient id="paint1_linear_2710_38033" x1="-0.0618955" y1="21.0584" x2="42.1384" y2="21.0584" gradientUnits="userSpaceOnUse">
<stop stop-color="#2B2B2B"/>
<stop offset="0.152836" stop-color="#131313"/>
<stop offset="0.745954" stop-color="#131313"/>
<stop offset="1" stop-color="#1B1B1B"/>
</linearGradient>
<clipPath id="clip0_2710_38033">
<rect width="137" height="42.0133" fill="white" transform="translate(0 0.746582)"/>
</clipPath>
</defs>
</svg>
